<svg viewBox="0 0 76 76" fill="none" xmlns="http://www.w3.org/2000/svg">
    <rect x="1.5" y="1.5" width="73" height="73" rx="36.5" fill="#004AB9"/>
    <path d="M49.7851 47.7018C47.4354 50.0515 41.9981 55.4888 39.4136 58.0733C38.6326 58.8543 37.3686 58.8555 36.5875 58.0744C34.0447 55.5315 28.7277 50.2146 26.2149 47.7018C19.7061 41.193 19.7061 30.6403 26.2149 24.1316C32.7236 17.6228 43.2764 17.6228 49.7851 24.1316C56.2939 30.6403 56.2939 41.193 49.7851 47.7018Z" stroke="white" stroke-width="3" stroke-linecap="round" stroke-linejoin="round"/>
    <path d="M44.25 35.9167C44.25 39.3684 41.4518 42.1667 38 42.1667C34.5482 42.1667 31.75 39.3684 31.75 35.9167C31.75 32.4649 34.5482 29.6667 38 29.6667C41.4518 29.6667 44.25 32.4649 44.25 35.9167Z" stroke="white" stroke-width="3" stroke-linecap="round" stroke-linejoin="round"/>
    <rect x="1.5" y="1.5" width="73" height="73" rx="36.5" stroke="white" stroke-width="3"/>
</svg>
